<?xml version="1.0" encoding="iso-8859-1"?>
<!-- Generator: Adobe Illustrator 18.0.0, SVG Export Plug-In . SVG Version: 6.00 Build 0)  -->
<!DOCTYPE svg PUBLIC "-//W3C//DTD SVG 1.1//EN" "http://www.w3.org/Graphics/SVG/1.1/DTD/svg11.dtd">
<svg version="1.1" id="Capa_1" xmlns="http://www.w3.org/2000/svg" xmlns:xlink="http://www.w3.org/1999/xlink" x="0px" y="0px"
	 viewBox="0 0 362.086 362.086" style="enable-background:new 0 0 362.086 362.086;" xml:space="preserve" width="24px" height="24px">
<g>
	<path d="M163.343,186.845l-12.529,12.529c-2.148,2.148-2.148,5.63,0,7.778c1.074,1.074,2.481,1.611,3.889,1.611
		s2.815-0.537,3.889-1.611l12.529-12.529c2.148-2.148,2.148-5.63,0-7.778C168.973,184.697,165.492,184.697,163.343,186.845z"/>
	<path d="M265.86,84.329l-85.43,85.43c-2.148,2.148-2.148,5.63,0,7.778c1.074,1.074,2.481,1.611,3.889,1.611
		s2.815-0.537,3.889-1.611l85.43-85.43c2.148-2.148,2.148-5.63,0-7.778C271.49,82.181,268.008,82.181,265.86,84.329z"/>
	<path d="M309.145,41.044l-25.06,25.06c-2.148,2.148-2.148,5.63,0,7.778c1.074,1.074,2.481,1.611,3.889,1.611
		s2.815-0.537,3.889-1.611l25.06-25.06c2.148-2.148,2.148-5.63,0-7.778C314.774,38.896,311.293,38.896,309.145,41.044z"/>
	<path d="M143.835,131.938L83.088,71.191c-2.148-2.147-5.63-2.148-7.778,0s-2.148,5.63,0,7.778l60.747,60.747
		c1.074,1.074,2.481,1.611,3.889,1.611s2.815-0.537,3.889-1.611C145.983,137.568,145.983,134.086,143.835,131.938z"/>
	<path d="M52.942,41.044c-2.148-2.148-5.63-2.147-7.778,0c-2.148,2.148-2.148,5.63,0,7.778l14.397,14.397
		c1.074,1.074,2.481,1.611,3.889,1.611s2.815-0.537,3.889-1.611c2.148-2.148,2.148-5.63,0-7.778L52.942,41.044z"/>
	<path d="M355.752,321.072c-2.315-2.315-5.191-4.082-8.332-5.151c-1.047-3.14-2.805-5.986-5.186-8.366
		c-2.379-2.379-5.215-4.139-8.339-5.193c-1.053-3.123-2.81-5.957-5.186-8.333c-2.375-2.375-5.209-4.132-8.332-5.186
		c-1.053-3.123-2.81-5.956-5.186-8.332c-2.385-2.385-5.233-4.144-8.375-5.193c-1.069-3.141-2.836-6.018-5.151-8.333
		c-0.259-0.259-0.529-0.507-0.801-0.752c11.314-8.075,23.978-14.413,37.636-18.615c1.394-0.429,2.561-1.394,3.244-2.683
		c0.683-1.289,0.825-2.797,0.396-4.191l-8.159-26.52c-0.893-2.903-3.972-4.533-6.874-3.639
		c-12.987,3.995-25.278,9.486-36.699,16.254l-44.9-47.733l102.334-95.899c1.024-0.96,1.643-2.276,1.729-3.677l4.262-69.572
		c0.096-1.573-0.486-3.111-1.601-4.225c-1.115-1.115-2.66-1.697-4.226-1.601l-69.572,4.262c-1.401,0.086-2.717,0.704-3.677,1.729
		l-93.891,100.192L93.898,16.696c-0.858-0.924-2.007-1.524-3.255-1.702l-76.13-10.82C12.8,3.931,11.073,4.507,9.85,5.73
		s-1.799,2.95-1.556,4.663l10.82,76.13c0.177,1.248,0.778,2.397,1.702,3.255l95.842,89.056l-44.984,48.002
		c-11.42-6.767-23.709-12.257-36.695-16.252c-2.901-0.893-5.981,0.736-6.874,3.639l-8.159,26.52
		c-0.429,1.394-0.287,2.902,0.396,4.191c0.683,1.289,1.85,2.254,3.244,2.683c13.658,4.202,26.322,10.539,37.636,18.615
		c-0.272,0.245-0.542,0.493-0.802,0.753c-2.315,2.315-4.082,5.192-5.151,8.333c-3.141,1.048-5.99,2.808-8.375,5.193
		c-2.375,2.376-4.132,5.209-5.186,8.332c-3.123,1.053-5.957,2.81-8.332,5.186c-2.375,2.376-4.133,5.21-5.186,8.333
		c-3.124,1.054-5.96,2.814-8.339,5.193c-2.381,2.381-4.139,5.227-5.186,8.367c-3.141,1.069-6.018,2.836-8.333,5.151
		C2.309,325.097,0,330.667,0,336.362c0.01,5.689,2.318,11.255,6.334,15.271c4.016,4.015,9.582,6.324,15.29,6.334
		c5.689-0.01,11.255-2.319,15.271-6.334c2.315-2.315,4.082-5.192,5.151-8.332c3.14-1.047,5.986-2.805,8.366-5.186
		c2.379-2.379,4.139-5.216,5.193-8.34c3.123-1.053,5.957-2.81,8.333-5.186c2.375-2.376,4.132-5.209,5.186-8.332
		c3.123-1.053,5.957-2.81,8.332-5.185c2.379-2.379,4.137-5.226,5.188-8.37c3.138-1.066,6.017-2.835,8.337-5.156
		c0.259-0.259,0.507-0.529,0.752-0.802c8.075,11.314,14.413,23.978,18.615,37.636c0.728,2.365,2.904,3.884,5.255,3.884
		c0.536,0,1.081-0.079,1.619-0.245l26.52-8.159c1.394-0.429,2.561-1.394,3.244-2.683c0.683-1.289,0.825-2.797,0.396-4.191
		c-3.995-12.986-9.485-25.275-16.252-36.695l50.011-46.866l49.818,46.862c-6.768,11.421-12.259,23.711-16.254,36.698
		c-0.429,1.394-0.287,2.902,0.396,4.191c0.683,1.289,1.85,2.254,3.244,2.683l26.52,8.159c0.539,0.166,1.083,0.245,1.619,0.245
		c2.351,0,4.527-1.52,5.255-3.884c4.202-13.658,10.54-26.322,18.615-37.636c0.245,0.272,0.493,0.542,0.753,0.802
		c2.321,2.321,5.199,4.089,8.337,5.156c1.051,3.144,2.809,5.991,5.188,8.37c2.375,2.375,5.209,4.132,8.332,5.185
		c1.053,3.123,2.81,5.957,5.186,8.332c2.375,2.375,5.21,4.133,8.333,5.186c1.054,3.124,2.813,5.96,5.192,8.339
		c2.381,2.381,5.227,4.139,8.367,5.186c1.069,3.141,2.836,6.017,5.151,8.332c4.016,4.015,9.582,6.324,15.29,6.334
		c5.689-0.01,11.255-2.319,15.271-6.334c4.016-4.016,6.324-9.582,6.334-15.28C362.086,330.667,359.778,325.097,355.752,321.072z
		 M29.729,83.047l-9.515-66.952l66.951,9.516l86.163,92.749l-49.15,52.448L29.729,83.047z M21.625,346.967
		c-2.801-0.005-5.539-1.14-7.512-3.112c-1.973-1.973-3.107-4.711-3.112-7.502c0-2.79,1.134-5.524,3.112-7.502
		c0.972-0.972,2.157-1.747,3.461-2.279l13.824,13.824c-0.533,1.303-1.307,2.488-2.28,3.46
		C27.144,345.827,24.406,346.962,21.625,346.967z M39.189,332.63l-13.852-13.852c0.523-1.282,1.296-2.448,2.293-3.446
		c1.002-1.002,2.169-1.779,3.447-2.307l13.864,13.864c-0.528,1.278-1.305,2.445-2.308,3.448
		C41.636,331.334,40.47,332.107,39.189,332.63z M52.72,319.111l-13.865-13.865c0.526-1.276,1.301-2.441,2.3-3.439
		c0.999-0.999,2.163-1.773,3.439-2.3l13.865,13.865c-0.526,1.276-1.301,2.441-2.3,3.439C55.161,317.81,53.996,318.585,52.72,319.111
		z M66.238,305.594l-13.865-13.865c0.526-1.276,1.301-2.441,2.3-3.439c1.001-1.001,2.17-1.776,3.454-2.301l13.849,13.849
		c-0.525,1.288-1.3,2.458-2.298,3.456C68.678,304.293,67.514,305.067,66.238,305.594z M83.203,289.768
		c-0.975,0.975-2.159,1.75-3.458,2.282l-13.826-13.826c0.533-1.303,1.307-2.488,2.279-3.46c0.591-0.591,1.257-1.105,1.973-1.54
		c5.232,4.467,10.103,9.338,14.57,14.57C84.305,288.512,83.792,289.179,83.203,289.768z M119.144,325.921
		c-14.29-40.793-46.305-72.809-87.098-87.098l4.928-16.017c22.996,7.951,43.518,20.937,60.291,37.677
		c0.036,0.038,0.061,0.083,0.098,0.12s0.082,0.062,0.12,0.098c16.74,16.773,29.726,37.295,37.678,60.291L119.144,325.921z
		 M108.977,256.768l31.39-31.39c2.148-2.148,2.148-5.63,0-7.778c-2.148-2.148-5.63-2.148-7.778,0l-31.39,31.39
		c-6.263-5.87-12.977-11.266-20.086-16.139L281.292,19.24l61.183-3.748l-3.748,61.184L125.117,276.853
		C120.243,269.745,114.847,263.031,108.977,256.768z M189.183,231.89l48.3-45.262l43.483,46.227
		c-7.106,4.872-13.817,10.266-20.078,16.134l-31.39-31.39c-2.148-2.148-5.63-2.148-7.778,0c-2.148,2.148-2.148,5.63,0,7.778
		l31.39,31.39c-5.868,6.261-11.263,12.972-16.135,20.079L189.183,231.89z M242.943,325.921l-16.017-4.927
		c7.951-22.996,20.938-43.518,37.678-60.291c0.038-0.036,0.083-0.061,0.12-0.098s0.062-0.082,0.098-0.12
		c16.773-16.74,37.295-29.726,60.291-37.677l4.928,16.017C289.248,253.112,257.232,285.128,242.943,325.921z M278.884,289.769
		c-0.589-0.59-1.103-1.256-1.538-1.974c4.467-5.232,9.338-10.103,14.57-14.57c0.716,0.435,1.382,0.948,1.973,1.539
		c0.972,0.972,1.747,2.157,2.28,3.46l-13.826,13.826C281.042,291.519,279.859,290.743,278.884,289.769z M292.409,303.294
		c-0.998-0.998-1.773-2.168-2.298-3.456l13.849-13.849c1.284,0.524,2.453,1.299,3.454,2.301c0.999,0.999,1.773,2.163,2.3,3.439
		l-13.865,13.865C294.572,305.067,293.408,304.293,292.409,303.294z M305.927,316.811c-0.999-0.999-1.773-2.163-2.3-3.439
		l13.865-13.865c1.276,0.526,2.44,1.301,3.439,2.3c0.999,0.999,1.773,2.163,2.3,3.439l-13.865,13.865
		C308.09,318.585,306.926,317.81,305.927,316.811z M319.452,330.336c-1.002-1.002-1.779-2.169-2.307-3.447l13.864-13.864
		c1.278,0.528,2.445,1.305,3.448,2.307c0.997,0.997,1.77,2.164,2.293,3.446l-13.852,13.852
		C321.616,332.107,320.45,331.334,319.452,330.336z M347.975,343.854c-1.974,1.973-4.712,3.108-7.493,3.113
		c-2.801-0.005-5.539-1.139-7.512-3.113c-0.972-0.972-1.747-2.157-2.28-3.46l13.824-13.824c1.304,0.533,2.488,1.307,3.46,2.279
		c1.978,1.978,3.112,4.713,3.112,7.493C351.082,339.143,349.947,341.881,347.975,343.854z"/>
</g>
<g>
</g>
<g>
</g>
<g>
</g>
<g>
</g>
<g>
</g>
<g>
</g>
<g>
</g>
<g>
</g>
<g>
</g>
<g>
</g>
<g>
</g>
<g>
</g>
<g>
</g>
<g>
</g>
<g>
</g>
</svg>
