<?xml version="1.0" ?><svg viewBox="0 0 64 64" xmlns="http://www.w3.org/2000/svg"><defs><style>.cls-1{fill:#fff;}.cls-2{fill:#808285;}.cls-3{fill:#f91b45;}</style></defs><title/><g id="_34-meetup"><rect class="cls-1" height="64" rx="11.2" ry="11.2" width="64"/><path class="cls-2" d="M52.8,1.07A10.14,10.14,0,0,1,62.93,11.2V52.8A10.14,10.14,0,0,1,52.8,62.93H11.2A10.14,10.14,0,0,1,1.07,52.8V11.2A10.14,10.14,0,0,1,11.2,1.07H52.8M52.8,0H11.2A11.19,11.19,0,0,0,0,11.2V52.8A11.19,11.19,0,0,0,11.2,64H52.8A11.19,11.19,0,0,0,64,52.8V11.2A11.19,11.19,0,0,0,52.8,0Z"/><path class="cls-3" d="M35.8,14.7s13.6-2.8,13.5,10.4c0,0,7.8,3.7,2.1,9.4,0,0,6.1,13.2-8.5,14.8,0,0-2.9,8.1-10.9,3.3,0,0-10.8,7-14.2-6.9,0,0-11.8-3.3-4.5-13.7,0,0-3.9-10.5,5.9-11.7C19.2,20.3,23,8.88,35.8,14.7Z"/><circle class="cls-3" cx="36.27" cy="10" r="2.2"/><circle class="cls-3" cx="53.04" cy="21.79" r="1.86"/><circle class="cls-3" cx="59.46" cy="28.08" r="1.05"/><circle class="cls-3" cx="15.3" cy="48.44" r="1.05"/><circle class="cls-3" cx="32" cy="56.71" r="1.4"/><circle class="cls-3" cx="21.93" cy="7.4" r="1.36"/><circle class="cls-3" cx="16.97" cy="16.37" r="1.56"/><circle class="cls-3" cx="56.55" cy="35.13" r="1.43"/><circle class="cls-3" cx="8.2" cy="31.59" r="2.2"/><circle class="cls-3" cx="46.44" cy="53.2" r="2.2"/><path class="cls-1" d="M19,37.51a5.18,5.18,0,0,0-.23,2.24,2.84,2.84,0,0,0,1.67,2.45c6.26,3.4,7.63-15,10.6-13.3s-4.84,9.17-1.54,11.17c3.8,2.36,7.34-13.24,9.67-12.1.57.3,1.3.63-1.2,5s-2.25,7.46-1,9.21,6.75,2.3,7.15,0-2-.4-3.8-2c-2.8-1.87,5.87-12.6,3-15.4s-3.8-.73-5.6-.87-.87-1.86-3.2-1.66-1.33,1.93-3.73,2.06c-1,.06-1.27-.36-2-.87a3.46,3.46,0,0,0-2.92-.4l-.41.14a5.2,5.2,0,0,0-3,3.34Z"/></g></svg>