<?xml version="1.0" standalone="no"?>
<!DOCTYPE svg PUBLIC "-//W3C//DTD SVG 20010904//EN"
 "http://www.w3.org/TR/2001/REC-SVG-20010904/DTD/svg10.dtd">
<svg version="1.0" xmlns="http://www.w3.org/2000/svg"
 width="616.000000pt" height="616.000000pt" viewBox="0 0 616.000000 616.000000"
 preserveAspectRatio="xMidYMid meet">
<metadata>
Created by potrace 1.14, written by Peter Selinger 2001-2017
</metadata>
<g transform="translate(0.000000,616.000000) scale(0.100000,-0.100000)"
fill="#000000" stroke="none">
<path d="M2785 6118 c-16 -6 -36 -17 -43 -25 -7 -7 -17 -13 -22 -13 -36 0
-247 -267 -314 -397 -9 -18 -20 -33 -23 -33 -6 0 -46 25 -114 71 -44 30 -261
136 -324 159 -122 44 -266 83 -350 94 -27 4 -63 9 -80 12 -16 2 -85 6 -152 8
l-122 4 4 -60 c2 -33 6 -67 9 -76 3 -10 8 -51 11 -92 4 -41 9 -84 11 -95 26
-126 23 -407 -5 -502 -5 -18 -8 -33 -6 -33 2 0 -2 -18 -10 -40 -8 -22 -12 -40
-10 -40 2 0 -7 -33 -21 -72 -13 -40 -26 -82 -28 -93 -4 -18 -21 -69 -46 -130
-127 -321 -171 -423 -232 -540 -28 -52 -47 -92 -78 -155 -4 -8 -12 -24 -18
-35 -10 -18 -43 -87 -128 -272 -13 -28 -24 -56 -24 -61 0 -5 -7 -15 -15 -22
-9 -7 -14 -15 -11 -17 2 -3 -13 -39 -34 -81 -20 -42 -43 -94 -51 -114 -7 -21
-17 -38 -21 -38 -4 0 -8 -7 -8 -16 0 -9 -6 -28 -14 -42 -8 -15 -23 -47 -35
-72 -86 -194 -115 -261 -163 -375 -61 -145 -71 -168 -72 -175 -1 -3 -4 -10 -8
-15 -4 -6 -18 -42 -32 -80 -15 -39 -31 -79 -36 -90 -5 -11 -17 -40 -25 -65 -9
-25 -27 -76 -41 -115 -30 -84 -83 -250 -88 -279 -2 -12 -7 -32 -11 -46 -4 -19
5 -48 35 -108 23 -45 45 -82 50 -82 4 0 11 -10 14 -22 14 -53 148 -208 246
-285 182 -143 437 -187 622 -108 11 4 18 3 18 -4 0 -28 46 -104 87 -146 77
-76 182 -118 328 -128 91 -7 174 32 216 100 12 18 27 39 33 46 7 7 19 23 26
37 7 13 17 29 22 34 5 6 24 36 43 66 19 30 38 60 43 66 5 6 13 20 16 32 4 12
12 22 17 22 5 0 9 4 9 9 0 13 93 166 114 186 9 9 16 20 16 24 0 4 8 16 18 27
9 10 33 39 52 64 56 73 238 251 325 319 44 34 87 68 95 74 8 7 40 28 70 47 30
19 57 38 58 42 2 5 8 8 13 8 6 0 33 15 62 33 29 18 79 46 112 62 33 16 62 33
63 37 2 4 9 8 16 8 12 0 60 20 99 41 16 9 17 6 13 -38 -25 -221 -93 -393 -239
-600 -96 -136 -173 -244 -184 -258 -5 -5 -58 -77 -118 -160 -60 -82 -114 -155
-120 -162 -5 -7 -16 -19 -22 -27 -7 -8 -13 -17 -13 -20 0 -2 -25 -40 -55 -84
-30 -44 -55 -84 -55 -88 0 -4 -6 -15 -14 -23 -46 -52 -236 -474 -236 -526 0
-8 -5 -15 -12 -15 -6 0 -9 -3 -5 -6 3 -3 -1 -27 -8 -52 -13 -43 -40 -163 -51
-222 -2 -14 -7 -36 -9 -50 -3 -14 -7 -56 -11 -95 -7 -87 -7 -78 -5 -92 1 -10
440 -13 2161 -13 2050 0 2160 1 2161 18 1 9 2 28 4 42 22 213 29 396 29 790 0
348 -5 555 -19 695 -3 28 -7 75 -10 105 -6 65 -12 125 -31 295 -3 28 -7 52 -9
55 -2 3 -6 33 -10 65 -3 33 -8 67 -11 76 -3 9 -7 32 -9 50 -3 19 -7 41 -8 49
-2 8 -8 38 -12 65 -5 28 -9 52 -10 55 -9 44 -19 86 -30 135 -8 33 -17 75 -20
94 -3 19 -8 38 -11 43 -3 4 -7 17 -9 28 -2 12 -14 55 -25 98 -12 42 -23 82
-24 87 -2 6 -5 17 -8 25 -3 8 -11 35 -19 60 -7 25 -17 51 -22 58 -5 6 -7 12
-4 12 3 0 -2 24 -13 53 -37 105 -79 216 -93 249 -8 18 -34 78 -57 133 -24 55
-47 102 -51 103 -5 2 -9 10 -9 17 0 30 -156 309 -263 470 -66 98 -186 264
-207 285 -3 3 -17 21 -32 40 -15 19 -39 49 -53 65 -15 17 -52 59 -83 94 -77
87 -213 223 -294 294 -91 80 -204 167 -216 167 -6 0 -12 4 -14 9 -3 9 -112 81
-125 82 -5 1 -19 10 -32 20 -13 11 -30 19 -37 19 -8 0 -14 5 -14 10 0 6 -4 10
-9 10 -5 0 -38 13 -73 28 -34 16 -66 30 -71 30 -4 1 -20 8 -36 16 -33 17 -159
54 -211 62 -19 3 -42 7 -50 10 -56 21 -345 20 -378 0 -8 -4 -16 3 -24 21 -13
33 -11 26 -27 83 -6 25 -16 54 -21 65 -5 11 -25 66 -44 123 -19 57 -56 140
-83 185 -64 108 -207 253 -302 307 -14 8 -28 17 -31 20 -29 29 -68 35 -115 18z"/>
</g>
</svg>
