<?xml version="1.0" encoding="iso-8859-1"?>
<svg version="1.1" id="Capa_1" xmlns="http://www.w3.org/2000/svg" x="0px" y="0px"
	 viewBox="0 0 220 220" style="enable-background:new 0 0 220 220;" xml:space="preserve">
<path fill="currentColor" d="M220,98.865c0-12.728-10.355-23.083-23.083-23.083s-23.083,10.355-23.083,23.083c0,5.79,2.148,11.084,5.681,15.14
	l-23.862,21.89L125.22,73.002l17.787-20.892l-32.882-38.623L77.244,52.111l16.995,19.962l-30.216,63.464l-23.527-21.544
	c3.528-4.055,5.671-9.344,5.671-15.128c0-12.728-10.355-23.083-23.083-23.083C10.355,75.782,0,86.137,0,98.865
	c0,11.794,8.895,21.545,20.328,22.913l7.073,84.735H192.6l7.073-84.735C211.105,120.41,220,110.659,220,98.865z"/>
<g>
</g>
<g>
</g>
<g>
</g>
<g>
</g>
<g>
</g>
<g>
</g>
<g>
</g>
<g>
</g>
<g>
</g>
<g>
</g>
<g>
</g>
<g>
</g>
<g>
</g>
<g>
</g>
<g>
</g>
</svg>
